<?xml version="1.0" encoding="UTF-8"?>
<!DOCTYPE svg PUBLIC "-//W3C//DTD SVG 1.1//EN" "http://www.w3.org/Graphics/SVG/1.1/DTD/svg11.dtd">
<!-- Creator: CorelDRAW 2021 (64-Bit Evaluation Version) -->
<svg xmlns="http://www.w3.org/2000/svg" xml:space="preserve" width="20in" height="8.59403in" version="1.1" style="shape-rendering:geometricPrecision; text-rendering:geometricPrecision; image-rendering:optimizeQuality; fill-rule:evenodd; clip-rule:evenodd"
viewBox="0 0 20000 8594.03"
 xmlns:xlink="http://www.w3.org/1999/xlink"
 xmlns:xodm="http://www.corel.com/coreldraw/odm/2003">
 <defs>
  <style type="text/css">
   <![CDATA[
    .fil3 {fill:#2299D1}
    .fil0 {fill:#8EBE44}
    .fil2 {fill:#E74F37}
    .fil1 {fill:#F2931F}
    .fil5 {fill:white}
    .fil6 {fill:#9B9B9B}
    .fil4 {fill:white}
    .fil7 {fill:black;fill-rule:nonzero}
   ]]>
  </style>
 </defs>
 <g id="Layer_x0020_1">
  <metadata id="CorelCorpID_0Corel-Layer"/>
  <g id="_1759715073728">
   <g>
    <circle class="fil0" cx="7460.71" cy="2116.83" r="2116.83"/>
    <circle class="fil1" cx="12537.4" cy="2116.83" r="2116.83"/>
    <circle class="fil2" cx="17613.42" cy="2116.83" r="2116.83"/>
    <circle class="fil3" cx="2386.58" cy="2116.83" r="2116.83"/>
    <path class="fil4" d="M13535.04 1516.3c-27.2,-3.8 -268.11,-1.13 -307.63,-1.13l-1371.41 0c-39.52,0 -280.42,-2.67 -307.63,1.13 -93.5,13.06 -122.42,120.93 -49.3,166.49 46.14,28.77 95.15,-13.94 99.73,81.33l88.99 738.1c22.91,189.97 149.75,213.86 293.1,214.06l1121.64 0c143.35,-0.2 270.19,-24.09 293.09,-214.06l88.99 -738.1c4.57,-95.26 53.59,-52.56 99.73,-81.33 73.11,-45.56 44.2,-153.44 -49.3,-166.49zm-393.27 661.32l113.37 0c15.22,0 27.67,12.45 27.67,27.67l0 0c0,15.22 -12.44,27.67 -27.67,27.67l-113.37 0c-15.22,0 -27.67,-12.44 -27.67,-27.67l0 0c0,-15.22 12.44,-27.67 27.67,-27.67zm-325.37 0l113.37 0c15.22,0 27.67,12.45 27.67,27.67l0 0c0,15.22 -12.44,27.67 -27.67,27.67l-113.37 0c-15.22,0 -27.67,-12.44 -27.67,-27.67l0 0c0,-15.22 12.44,-27.67 27.67,-27.67zm-326.03 0l113.36 0c15.22,0 27.67,12.45 27.67,27.67l0 0c0,15.22 -12.45,27.67 -27.67,27.67l-113.36 0c-15.22,0 -27.67,-12.44 -27.67,-27.67l0 0c0,-15.22 12.45,-27.67 27.67,-27.67zm-330.56 0l113.37 0c15.22,0 27.67,12.45 27.67,27.67l0 0c0,15.22 -12.44,27.67 -27.67,27.67l-113.37 0c-15.22,0 -27.67,-12.44 -27.67,-27.67l0 0c0,-15.22 12.44,-27.67 27.67,-27.67zm-326.5 0l113.37 0c15.22,0 27.67,12.45 27.67,27.67l0 0c0,15.22 -12.44,27.67 -27.67,27.67l-113.37 0c-15.22,0 -27.67,-12.44 -27.67,-27.67l0 0c0,-15.22 12.44,-27.67 27.67,-27.67zm1269.12 264.92l113.37 0c15.22,0 27.67,12.45 27.67,27.67l0 0c0,15.22 -12.44,27.67 -27.67,27.67l-113.37 0c-15.22,0 -27.67,-12.44 -27.67,-27.67l0 0c0,-15.22 12.44,-27.67 27.67,-27.67zm-309.75 0l113.36 0c15.22,0 27.67,12.45 27.67,27.67l0 0c0,15.22 -12.45,27.67 -27.67,27.67l-113.36 0c-15.22,0 -27.67,-12.44 -27.67,-27.67l0 0c0,-15.22 12.45,-27.67 27.67,-27.67zm-302.31 0l113.36 0c15.22,0 27.67,12.45 27.67,27.67l0 0c0,15.22 -12.45,27.67 -27.67,27.67l-113.36 0c-15.22,0 -27.67,-12.44 -27.67,-27.67l0 0c0,-15.22 12.45,-27.67 27.67,-27.67zm-312.37 0l113.37 0c15.22,0 27.67,12.45 27.67,27.67l0 0c0,15.22 -12.44,27.67 -27.67,27.67l-113.37 0c-15.22,0 -27.67,-12.44 -27.67,-27.67l0 0c0,-15.22 12.44,-27.67 27.67,-27.67zm-310.63 0l113.37 0c15.22,0 27.67,12.45 27.67,27.67l0 0c0,15.22 -12.44,27.67 -27.67,27.67l-113.37 0c-15.22,0 -27.67,-12.44 -27.67,-27.67l0 0c0,-15.22 12.44,-27.67 27.67,-27.67zm274.78 -528.17l113.36 0c15.22,0 27.67,12.45 27.67,27.67l0 0c0,15.22 -12.45,27.67 -27.67,27.67l-113.36 0c-15.22,0 -27.67,-12.44 -27.67,-27.67l0 0c0,-15.22 12.44,-27.67 27.67,-27.67zm-351.82 0l113.36 0c15.22,0 27.67,12.45 27.67,27.67l0 0c0,15.22 -12.45,27.67 -27.67,27.67l-113.36 0c-15.22,0 -27.67,-12.44 -27.67,-27.67l0 0c0,-15.22 12.45,-27.67 27.67,-27.67zm700.04 0l113.36 0c15.22,0 27.67,12.45 27.67,27.67l0 0c0,15.22 -12.45,27.67 -27.67,27.67l-113.36 0c-15.22,0 -27.67,-12.44 -27.67,-27.67l0 0c0,-15.22 12.45,-27.67 27.67,-27.67zm351.76 0l113.36 0c15.22,0 27.67,12.45 27.67,27.67l0 0c0,15.22 -12.45,27.67 -27.67,27.67l-113.36 0c-15.22,0 -27.67,-12.44 -27.67,-27.67l0 0c0,-15.22 12.45,-27.67 27.67,-27.67zm337.61 0l113.37 0c15.22,0 27.67,12.45 27.67,27.67l0 0c0,15.22 -12.44,27.67 -27.67,27.67l-113.37 0c-15.22,0 -27.67,-12.44 -27.67,-27.67l0 0c0,-15.22 12.44,-27.67 27.67,-27.67z"/>
    <path class="fil5" d="M17429.64 2070.67c-0.26,0.71 -20.65,26.22 -20.72,26.29 -19.59,23.73 -31.72,23.7 -69.37,24.24 -21.93,0.31 -218.4,1.53 -221.09,-0.5 3.42,-15.76 5.51,-0.57 10.92,-14.28 69.77,-176.83 746.29,-437.93 920.23,-425.38 6,8.8 6.93,14.63 11.74,25.59 31.12,70.94 36.17,214.6 26.05,294.7 -12.54,99.11 -198.07,140.5 -254.19,110.39 -37.09,-42.21 5.07,-40.66 -107.81,-40.66l-295.76 -0.37zm709.17 694.47c19.85,-11.14 26.91,-65.78 -7.2,-70.19 -26.65,-3.44 -38.07,-15.76 -23.82,-42.83 26.24,-49.86 20.56,-133.84 81.22,-213.49 61.6,-80.84 193.06,-143.67 287.13,-155.43 19.92,-2.48 52.85,8.03 51.85,-22.68 -0.62,-19 -8.48,-45.59 -16.27,-59.59 -14.62,-26.31 -10.03,-67.37 -20.87,-91.02l-9.24 -18.88c-0.17,-0.34 -0.41,-0.87 -0.57,-1.18l-8.1 -11.13c-6.32,-12.56 -6.5,-57.5 -18.93,-75.55 -4.78,-6.95 -12.34,-30.15 -12.83,-35.02 -1.75,-17.28 -0.37,-23.72 4.69,-35.79 2.31,-5.52 0.63,-5.17 6.1,-9.87 0.44,-0.37 1.83,-1.22 2.26,-1.56l2.83 -2.44c2.23,-2.39 -0.32,0.46 1.54,-1.96 1.25,-1.63 2.97,-4.38 3.8,-5.46 2.78,-3.59 1.57,-2.18 4.68,-4.98 0.69,-0.62 3.67,-3.22 5.2,-4.28l3.82 -2.24c0.41,-0.22 0.93,-0.4 1.33,-0.6l6.28 -4.18c20.69,-20.15 17.39,-11.22 29.19,-19.53l29.91 -25.26c4.14,-6.25 -0.5,-2.12 7.89,-11.17 1.98,-2.14 3.02,-3.27 3.58,-4.92 1.22,-3.59 -0.83,-9.5 -1.76,-13.93 -8.53,-40.61 16.96,-34.74 30.11,-46.3 4.11,-3.61 6.76,-22.8 7.04,-28.01 0.2,-3.57 -2.28,-9.34 -3.65,-12.83 -3.42,-8.7 -1.91,-10.5 -5.24,-22.98 -0.63,-2.37 -0.93,-3.49 -1.72,-7.93 -4.1,-22.98 -2.09,-16.18 14.22,-34.57l4.47 -5.15c8.04,2.13 4.27,2.64 13.05,3.66l33.56 0.05c1.05,-12.44 -4.78,-22.8 -2.98,-32.69 0.34,-52.09 -77.14,-11.22 -97.67,-0.74 -15.14,7.73 -38.61,11.28 -43.31,-9.98 -14.46,-65.46 -40.38,-50.09 -90.92,-48.75 -14.51,0.38 -61.9,9.69 -72.59,-10.5 -7.89,-14.89 -13.59,-52.94 -15.26,-72.57 -6.33,-74.3 -161.3,-45.35 -212.2,-44.76 -732.35,43.96 -1467.15,481.74 -1723.1,1194.46 -8.91,24.82 -2.63,55.78 -62.84,66.37 -25.69,4.52 -68.64,43.14 -46.07,69.93 11.86,14.07 58.62,5.59 76.16,6.58 28.13,1.58 99,-0.08 130.47,-0.09l1481.84 0.16c60.79,0 120.65,11.11 172.96,-18.21zm502.53 -1131.9c-1.8,9.89 4.03,20.25 2.98,32.69l-33.56 -0.05c-8.78,-1.02 -5.01,-1.54 -13.05,-3.66l-4.47 5.15c-16.31,18.39 -18.32,11.59 -14.22,34.57 0.79,4.44 1.09,5.56 1.72,7.93 3.33,12.47 1.82,14.28 5.24,22.98 1.37,3.5 3.85,9.26 3.65,12.83 -0.28,5.2 -2.93,24.39 -7.04,28.01 -13.15,11.56 -38.64,5.69 -30.11,46.3 0.93,4.44 2.98,10.34 1.76,13.93 -0.56,1.65 -1.6,2.78 -3.58,4.92 -8.39,9.04 -3.75,4.92 -7.89,11.17l-29.91 25.26c-11.8,8.31 -8.5,-0.62 -29.19,19.53l-6.28 4.18c-0.4,0.2 -0.92,0.39 -1.33,0.6l-3.82 2.24c-1.54,1.06 -4.51,3.67 -5.2,4.28 -3.11,2.8 -1.9,1.39 -4.68,4.98 -0.83,1.07 -2.55,3.82 -3.8,5.46 -1.86,2.43 0.69,-0.42 -1.54,1.96l-2.83 2.44c-0.43,0.34 -1.82,1.19 -2.26,1.56 -5.47,4.7 -3.79,4.35 -6.1,9.87 -5.06,12.06 -6.43,18.5 -4.69,35.79 0.5,4.87 8.05,28.07 12.83,35.02 12.43,18.04 12.61,62.98 18.93,75.55l5.58 7.57c-2.94,-18.16 -9.89,-74.92 -18.7,-88.68 -22.48,-35.13 -17.26,-70.38 18.56,-93.24 26.63,-17.01 61.53,-36.51 77.2,-64.2 5.89,-10.41 3.37,-15.33 1.21,-28.25 -5.17,-31.02 23.51,-22.43 34.72,-34.67 2.91,-3.17 5.02,-21.1 4.86,-29.3 -0.24,-12.03 -10.45,-41.39 -11.68,-56.3 -1.85,-22.32 22.02,-24.93 35.94,-7.61 14.34,21.56 22.69,44.92 34.81,69.62 20.08,-1.11 67.35,-16.35 78.49,-29.63 16.39,-19.54 -23.39,-105.4 11.06,-105.22 30.83,0.17 42.21,67.9 53.82,82.67 45.78,4.43 48.6,-13.1 70.57,-19.32 15.96,-4.52 47.49,-10.73 58.04,-29.29 8.36,-14.71 6.69,-28.68 21.92,-35.51 93.68,-42.04 257.67,-58.54 297.8,76.11 10.2,34.22 18.54,92.25 17.7,127.2l-6.58 50.78c-1.74,7.56 -3.82,44.02 -3.3,52.73 0.64,16.81 -5.91,99.46 -6.23,131.25 -1.49,145.33 76.54,327.72 223.07,365.8 17.18,4.46 35.31,6.95 54.36,7.15 39.25,0.42 46.18,-38.38 21.19,-53.56 -17.71,-10.75 -38.21,-7.61 -53.19,-15.75 -90.28,-49.06 -141.97,-97.92 -165.76,-171.77 -11.98,-37.17 -16.89,-80.68 -16.1,-133.73 1.22,-81.5 16.18,-167.73 15.92,-248.17 -0.63,-193.04 -142.69,-333.2 -332.41,-274.06 -23.26,7.26 -61.85,32.94 -88.52,11.54 -86.8,-69.59 -57.64,70.11 -59.32,88.19 -6.84,5.01 -13.41,14.21 -25.07,7.2 -11.72,-7.05 -10.19,-14.37 -17.81,-23.17 -29.38,-33.93 -3.89,-63.75 -57.9,-51.05 -16.43,3.86 -50.26,21.96 -64.56,32.89 -0.29,8.36 11.22,33.4 14.78,42.05 14.16,34.44 -7.31,53.01 -41.6,26.75 -10.35,-7.93 -6.94,-23.35 -14.45,-32.54z"/>
    <path class="fil4" d="M7463.09 1430.81c-137.15,81.08 -107.85,190.56 -131.07,315.59 -3.71,19.97 -756.49,376.35 -847.99,407.4 -189.4,64.25 -356.34,164.31 -369.22,375.21 -13.85,226.79 158.6,365.1 375.87,367.29 606.6,6.09 1216.02,0.04 1822.94,0.04 55.06,0 110.93,0.94 165.89,-0.04 172.22,-3.06 324.81,-166.49 327.78,-335.61 3.57,-203.07 -78.15,-230.62 -222.16,-332.88 -33.15,-23.53 -425.3,-205.98 -473.65,-221.25 -70.2,-22.16 -417.43,-187.77 -474.33,-221.17 -178.96,-105.07 86.52,-234.89 154.15,-304.15 103.11,-123.7 109.27,-245.24 70.6,-382.3 -88.74,-314.6 -419.51,-410.5 -668.41,-216.56 -98.53,76.78 -170.1,186.99 -140.18,285.07 17.17,56.31 90.06,82.22 143.94,73.41 52.9,-8.64 69.1,-54.83 89.71,-90.31 37.86,-65.18 94.72,-134.42 183.74,-118.57 68.21,12.15 126.82,39.63 154.32,109.48 13.91,35.33 12.09,106.27 -0.87,140.52 -18.48,48.83 -117.13,122.84 -161.07,148.81zm-973.3 994.96c-27.27,12.57 -50.35,21.43 -77.81,35.85 -68.35,40.33 -72.74,136.47 -1.11,177.32 22.84,13.03 190.35,8.1 219.6,8.04 606.76,-1.51 1214.24,1.35 1821.07,-0.39 42.53,-0.12 72.08,-11.55 94.79,-49.09 42.59,-70.39 -16.13,-127.17 -74.28,-154.47 -263.95,-123.96 -741.28,-371.91 -1000.21,-453.98 -33.64,-10.67 -886.34,392.62 -982.05,436.72z"/>
    <path class="fil6" d="M3229.41 1223.14c-2.41,15.36 -3.66,45.31 -1.42,60.65l-0.81 127.59c-0.97,5.77 -6.47,16.76 -9.58,22.6 -5.93,11.14 -13.66,8.83 -26.73,8.47 -42.5,-1.17 -83.91,1.18 -126.75,0.26 -20.44,-0.44 -45.12,-1.39 -65.24,-0.42 -22.48,1.08 -42.58,2.82 -65.28,0.85 -40.15,-3.49 -83.06,0.78 -122.91,-0.81 -44.13,-1.77 -87.08,0.9 -130.55,0.44 -55.88,-0.6 -137.82,-2.63 -191.93,0.61 -19.85,1.19 -44.5,-1.02 -65.3,-1.01 -86.49,0.06 -172.65,0.17 -259.09,1.47 -41.88,0.63 -86.12,-2.41 -128.61,-1.85l-193.85 -0.33c-22.09,-0.5 -43.69,2.76 -65.24,2 -53.99,-1.9 -136.26,-1.26 -193.85,-0.88 -32.87,0.21 -31.93,6.31 -40.37,-24.17 -5.93,-21.41 -1.46,-219.45 -0.91,-256.96 0.89,-60.35 14.85,-46 29.15,-65.98 6.28,-8.78 7.23,-11.33 20.02,-13.8 54.6,-10.55 188.77,-5.47 251.26,-5.12 19.98,0.11 40.14,-1.86 61.56,-1.48 19.33,0.35 42.25,2.73 62.91,1.53 39.28,-2.28 88.54,-2.8 128.97,-1.7 85.35,2.32 173.52,1.18 259.09,0.47 86.19,-0.72 173.26,4.17 259.09,-0.16 39.81,-2.01 83.93,3.34 125.17,0.54 42.26,-2.87 85.17,1.49 128.4,0.39 11.16,-0.28 17.47,-2.16 29.8,-1.02 35.62,3.29 55.63,-0.36 93.15,0.02 42.89,0.43 87.78,1.45 130.47,0.69 28.82,-0.51 59.46,-1.92 76.72,18.43 6.28,7.4 10.37,8.17 16.99,16.45 10.09,12.63 12.19,35.7 12.02,54.51 -0.22,23.51 7.19,35.18 3.65,57.73zm7.36 16.77c5.27,-32.95 -1.12,-40.19 -3.3,-59.73 -1.12,-9.99 1.18,-24.01 -0.85,-32.93 -1.2,-5.3 -2.38,-3.96 -4.28,-11.19 -1.19,-4.53 -1.33,-8.52 -2.57,-12.88 -3.08,-10.86 -21.89,-30.19 -29.38,-35.93 -11.45,-8.77 -30.87,-15.03 -48.44,-16.65 -17.68,-1.63 -45.63,0.73 -65.19,0.24 -21.66,-0.54 -43.57,-0.55 -65.24,-0.4 -21.75,0.16 -43.45,-0.4 -65.24,-0.19 -11.28,0.11 -22.31,1.29 -33.56,1.38 -11.73,0.1 -18.77,-2.12 -29.75,-2.45 -19.8,-0.59 -41.64,2.63 -63.44,2.31l-193.91 -2.29c-19.28,-0.51 -41.65,1.6 -63.32,1.31 -20.87,-0.28 -44.55,-0.65 -65.24,0.43 -41.94,2.17 -87.95,-0.4 -130.48,-0.43 -44.14,-0.04 -88.17,0.23 -132.34,-0.01 -43.75,-0.24 -86.54,1.78 -130.47,0.2 -22.78,-0.82 -42.48,-0.84 -65.24,-0.35 -20.25,0.43 -45.79,-1.79 -64.84,0.26 -38.12,4.1 -87.4,-0.75 -129.01,1.23 -73.33,3.49 -188.72,-7.8 -256.85,4.89 -21.85,4.07 -24.91,15.23 -38.2,26.61 -13.26,11.37 -16.58,23.11 -18.74,45.65 -4.06,42.51 -1.97,146.58 -1.07,197.14 0.59,33.3 -10.6,101.59 27.67,101.46 21.85,-0.07 43.48,-0.47 65.38,-0.2 66.81,0.82 129.43,-0.97 193.81,-1.56 22.01,-0.2 43.36,1.29 65.28,1.41 86.65,0.48 174.54,-3.11 260.95,0.17 41.55,1.57 88.2,-0.88 130.48,-0.87l197.58 0.89c21.32,0.35 43.18,-1.95 65.24,-1.53 42.98,0.81 88.11,-0.73 130.48,1.07 21.3,0.91 43,-1.31 65.24,-0.69 56.18,1.6 140.78,-1.82 194.04,1.26 41.73,2.42 85.8,-1.74 128.42,-1.18 43.2,0.57 87.88,-1.33 130.48,0.48 25.13,1.06 35.35,-3.81 41.36,-23.39 4.05,-13.18 5.56,-105.96 5.16,-125.86 -0.59,-29.08 -8.06,-11.22 -0.62,-57.71z"/>
    <path class="fil5" d="M1625.88 1075.5l1516.48 0c49.21,0 89.47,40.26 89.47,89.46l0 235.38c0,24.6 -20.13,44.73 -44.74,44.73l-1617.13 0c-18.45,0 -33.55,-15.1 -33.55,-33.55l0 -246.57c0,-49.2 40.26,-89.46 89.46,-89.46zm244.16 102.77c45.3,0 82.02,36.72 82.02,82.02 0,45.3 -36.72,82.02 -82.02,82.02 -45.3,0 -82.02,-36.72 -82.02,-82.02 0,-45.3 36.72,-82.02 82.02,-82.02zm1030.4 0c45.3,0 82.02,36.72 82.02,82.02 0,45.3 -36.72,82.02 -82.02,82.02 -45.3,0 -82.02,-36.72 -82.02,-82.02 0,-45.3 36.72,-82.02 82.02,-82.02zm-648.47 2l265.07 0c22.15,0 40.27,18.12 40.27,40.27l0 82.32c0,22.15 -18.12,40.28 -40.27,40.28l-265.07 0c-22.15,0 -40.27,-18.12 -40.27,-40.28l0 -82.32c0,-22.15 18.12,-40.27 40.27,-40.27z"/>
    <path class="fil5" d="M1561.86 1514.41l1646.13 0c12.3,0 22.37,10.07 22.37,22.37l0 1440.41c0,36.91 -30.19,67.1 -67.1,67.1l-250.28 0 0 61.38c0,30.76 -25.16,55.92 -55.91,55.92l-59.53 0c-30.76,0 -55.92,-25.16 -55.92,-55.92l0 -61.38 -715.72 0 0 61.38c0,30.76 -25.16,55.92 -55.91,55.92l-59.53 0c-30.76,0 -55.92,-25.16 -55.92,-55.92l0 -61.38 -247.95 0c-36.91,0 -67.1,-30.2 -67.1,-67.1l0 -1440.41c0,-12.3 10.06,-22.37 22.37,-22.37zm823.06 199.42c315.1,0 570.54,255.44 570.54,570.54 0,315.09 -255.44,570.53 -570.54,570.53 -315.09,0 -570.53,-255.44 -570.53,-570.53 0,-315.1 255.44,-570.54 570.53,-570.54zm0 185.91c212.43,0 384.63,172.2 384.63,384.63 0,212.42 -172.2,384.63 -384.63,384.63 -212.42,0 -384.63,-172.2 -384.63,-384.63 0,-212.43 172.2,-384.63 384.63,-384.63z"/>
   </g>
   <path class="fil7" d="M16398.53 6210.05c-124.78,-95.94 -311,-149.9 -557.3,-149.9l-586.87 0 0 1125.01 774.28 0c160.15,0 303.5,-56.97 404.93,-158.4 96.59,-96.59 155.71,-234.24 155.71,-402.23 0,-174.57 -64.19,-317.18 -190.75,-414.48zm-162.99 1151.29l827.32 1176.46 -252.38 0 -805.89 -1154.49 -750.22 0 0 1154.49 -205.65 0c0.08,-891.94 0,-1783.87 0,-2675.8l803.76 0c296.94,0 529.22,71.81 689.55,199.41 168.46,134.07 256.65,327.72 256.65,563.12 0,200.74 -67.42,370.7 -175.63,498.65 -100.94,119.35 -237.3,201.73 -387.51,238.16z"/>
   <path class="fil7" d="M12640.33 6060.15l-706.81 0 0 2279.5 706.81 0c346.46,0 647.61,-111.1 858.43,-315.48 200.81,-194.67 320.67,-475.18 320.67,-826.14 0,-339.03 -117.69,-624.6 -324.43,-824.39 -205.4,-198.49 -499.61,-313.49 -854.67,-313.49zm1010.14 2108.3c-250.55,241.44 -606.14,369.35 -1010.14,369.35l-912.47 0 0 -2675.8 912.47 0c403.83,0 759.3,127.82 1009.85,368.57 236.57,227.32 378.65,554.02 378.65,967.46 0,415.06 -141.96,742.6 -378.36,970.42z"/>
   <polygon class="fil7" points="8827.36,5879.67 10614.78,8132.74 10614.78,5862 10820.43,5862 10820.43,8537.81 10672.81,8537.81 8845.06,6226.01 8845.06,8537.81 8639.41,8537.81 8639.41,5862 8813.35,5862 "/>
   <path class="fil7" d="M7411.66 8282.15c-185.53,201.44 -457.17,311.89 -809.56,311.89 -352.38,0 -624.02,-110.45 -809.56,-311.89 -189.18,-205.4 -286.57,-503.69 -286.57,-874.21l0 -1545.93 205.65 0 0 1542.19c0,291.03 68.82,557.04 233.48,739.48 140.76,155.96 353.82,252.2 657,252.2 303.73,0 517.01,-95.79 657.76,-251.74 164.11,-181.83 232.73,-447.37 232.73,-739.95l0 -1542.19 205.65 0 0 1545.93c0,370.52 -97.39,668.81 -286.57,874.21z"/>
   <path class="fil7" d="M4290.06 7784.9l-686.82 -1598.06 -697.03 1598.06 1383.85 0zm-602.63 -1894.86l1152.87 2647.77 -225.05 0 -239.89 -554.76 -1554.86 0 -243.65 554.76 -221.56 0c392.29,-891.91 784.6,-1783.82 1176.73,-2675.8l143.2 0 12.21 28.03z"/>
   <polygon class="fil7" points="17938.22,5883.67 18840,7306.4 19766.46,5862 20000,5862 18946.31,7526.14 18946.31,8537.81 18740.65,8537.81 18740.66,7526.14 17686.96,5862 17924.48,5862 "/>
   <path class="fil7" d="M1592.54 8386.25l0 151.56 -1592.54 0c0,-891.94 0.08,-1783.87 -0,-2675.8l205.65 0 0 2477.65 1386.89 0 0 46.6z"/>
  </g>
 </g>
</svg>
