<?xml version="1.0" encoding="UTF-8"?>
<!-- Generator: visioncortex VTracer 0.6.3 -->
<svg version="1.1" xmlns="http://www.w3.org/2000/svg" width="1280" height="1280">
<path d="M0 0 C2.65 -0 5.29 -0.01 7.94 -0.01 C14.32 -0.02 20.7 -0.02 27.08 -0.01 C32.27 -0.01 37.47 -0.01 42.67 -0.01 C43.41 -0.01 44.16 -0.01 44.92 -0.01 C46.44 -0.01 47.95 -0.01 49.47 -0.01 C63.6 -0.02 77.74 -0.01 91.88 -0 C103.95 0.01 116.03 0.01 128.1 -0 C142.19 -0.01 156.29 -0.02 170.38 -0.01 C171.89 -0.01 173.4 -0.01 174.91 -0.01 C175.65 -0.01 176.39 -0.01 177.15 -0.01 C182.33 -0.01 187.51 -0.01 192.68 -0.01 C199.01 -0.02 205.34 -0.02 211.66 -0.01 C214.88 -0 218.09 -0 221.31 -0.01 C268.19 -0.08 268.19 -0.08 286.69 7.45 C289.37 8.49 292.11 9.33 294.85 10.2 C299.6 11.75 303.52 13.68 307.79 16.26 C310.06 17.02 310.06 17.02 311.79 17.26 C311.79 17.92 311.79 18.58 311.79 19.26 C314.26 19.75 314.26 19.75 316.79 20.26 C316.79 20.92 316.79 21.58 316.79 22.26 C317.36 22.38 317.94 22.51 318.54 22.63 C320.81 23.27 322.71 24.15 324.79 25.26 C324.79 25.92 324.79 26.58 324.79 27.26 C325.57 27.57 326.35 27.88 327.16 28.2 C329.79 29.26 329.79 29.26 331.79 30.26 C331.79 30.92 331.79 31.58 331.79 32.26 C332.47 32.44 333.15 32.63 333.85 32.82 C337.37 34.54 339.48 36.77 342.14 39.6 C343.89 41.47 343.89 41.47 346.79 43.26 C346.79 43.92 346.79 44.58 346.79 45.26 C347.45 45.26 348.11 45.26 348.79 45.26 C350.29 46.72 350.29 46.72 351.91 48.63 C352.45 49.26 352.99 49.89 353.54 50.53 C354.79 52.26 354.79 52.26 354.79 54.26 C355.45 54.26 356.11 54.26 356.79 54.26 C358.61 56.64 360.3 59.02 361.97 61.51 C362.47 62.24 362.96 62.97 363.47 63.72 C371.36 75.48 378.32 87.4 382.17 101.11 C382.88 103.57 383.82 105.89 384.79 108.26 C386.82 114.48 387.77 120.8 388.79 127.26 C388.96 128.14 389.13 129.03 389.31 129.94 C389.86 133.77 389.92 137.52 389.9 141.38 C389.9 142.17 389.9 142.96 389.9 143.77 C389.9 146.37 389.89 148.97 389.88 151.56 C389.88 153.37 389.88 155.18 389.88 156.99 C389.87 161.73 389.86 166.47 389.85 171.22 C389.84 176.07 389.84 180.91 389.83 185.76 C389.82 195.26 389.81 204.76 389.79 214.26 C390.57 214.25 391.35 214.25 392.15 214.24 C411.22 214.13 430.28 214.05 449.35 214 C458.57 213.97 467.79 213.94 477.01 213.88 C485.05 213.83 493.09 213.8 501.13 213.79 C505.38 213.78 509.64 213.77 513.89 213.73 C517.9 213.7 521.92 213.69 525.93 213.69 C527.39 213.69 528.86 213.68 530.32 213.66 C543.86 213.49 554.84 216.35 564.71 225.81 C572.85 233.96 576.76 243.62 577.16 255.01 C576.97 266.45 572.64 276.35 564.57 284.49 C554.97 293.24 546.21 296.82 533.22 296.45 C532.31 296.43 531.4 296.42 530.46 296.41 C528.23 296.37 526.01 296.32 523.79 296.26 C523.79 296.85 523.79 297.44 523.79 298.05 C523.82 362.34 523.85 426.63 523.87 490.92 C523.87 491.88 523.87 492.84 523.87 493.83 C523.88 514.72 523.88 535.61 523.89 556.5 C523.89 566.74 523.89 576.99 523.9 587.23 C523.9 588.25 523.9 589.27 523.9 590.32 C523.9 623.34 523.92 656.35 523.94 689.36 C523.96 723.31 523.97 757.25 523.97 791.19 C523.97 795.99 523.97 800.78 523.97 805.58 C523.98 806.53 523.98 807.47 523.98 808.45 C523.98 823.62 523.99 838.79 524 853.97 C524.01 869.24 524.02 884.52 524.01 899.79 C524.01 908.85 524.01 917.91 524.03 926.98 C524.03 933.05 524.03 939.12 524.03 945.19 C524.03 948.63 524.03 952.08 524.03 955.53 C524.13 998.88 524.13 998.88 518.79 1017.26 C518.46 1017.59 518.13 1017.92 517.79 1018.26 C517.68 1019.23 517.58 1020.2 517.47 1021.2 C516.94 1025.31 515.48 1028.82 513.87 1032.62 C512.84 1035.12 512 1037.63 511.16 1040.2 C506.38 1053.44 498.85 1065.79 490.79 1077.26 C490.09 1078.36 489.4 1079.45 488.68 1080.58 C487.74 1081.91 487.74 1081.91 486.79 1083.26 C486.13 1083.26 485.47 1083.26 484.79 1083.26 C484.48 1083.88 484.17 1084.5 483.85 1085.13 C483.16 1086.51 482.47 1087.88 481.79 1089.26 C481.13 1089.26 480.47 1089.26 479.79 1089.26 C479.51 1089.86 479.24 1090.45 478.96 1091.07 C477.81 1093.22 476.68 1094.61 474.96 1096.32 C474.4 1096.87 473.85 1097.42 473.28 1097.99 C472.71 1098.55 472.13 1099.12 471.54 1099.7 C470.97 1100.26 470.41 1100.82 469.84 1101.39 C459.87 1111.26 459.87 1111.26 456.79 1111.26 C456.79 1111.92 456.79 1112.58 456.79 1113.26 C454.61 1114.9 452.44 1116.4 450.16 1117.88 C449.48 1118.33 448.81 1118.77 448.11 1119.23 C432.45 1129.41 414.01 1141.12 395.22 1143.76 C391.91 1144.1 391.91 1144.1 389.47 1145.2 C382.07 1148.12 373.86 1148.71 365.99 1149.37 C364.99 1149.45 363.99 1149.54 362.96 1149.62 C352.82 1150.42 342.73 1150.54 332.57 1150.51 C330.55 1150.52 328.52 1150.52 326.5 1150.52 C321.01 1150.53 315.52 1150.53 310.03 1150.52 C304.08 1150.52 298.13 1150.52 292.18 1150.53 C281.22 1150.54 270.26 1150.54 259.31 1150.53 C249.18 1150.53 239.06 1150.52 228.93 1150.53 C228.25 1150.53 227.58 1150.53 226.89 1150.53 C224.15 1150.53 221.41 1150.53 218.67 1150.53 C193.04 1150.53 167.41 1150.53 141.77 1150.52 C119.05 1150.51 96.33 1150.51 73.61 1150.52 C48.02 1150.53 22.43 1150.53 -3.16 1150.53 C-5.89 1150.53 -8.63 1150.53 -11.36 1150.53 C-12.03 1150.53 -12.7 1150.53 -13.4 1150.53 C-23.51 1150.52 -33.63 1150.53 -43.74 1150.53 C-55.25 1150.54 -66.76 1150.54 -78.28 1150.52 C-84.14 1150.52 -90 1150.52 -95.87 1150.52 C-101.25 1150.53 -106.64 1150.53 -112.02 1150.52 C-113.95 1150.51 -115.88 1150.51 -117.82 1150.52 C-136.17 1150.56 -155.46 1150.42 -173.21 1145.26 C-173.54 1144.93 -173.87 1144.6 -174.21 1144.26 C-175.18 1144.16 -176.15 1144.05 -177.15 1143.95 C-181.25 1143.41 -184.75 1141.96 -188.54 1140.36 C-192.04 1138.92 -195.6 1137.7 -199.18 1136.48 C-207.34 1133.19 -214.9 1128.8 -222.4 1124.26 C-223.25 1123.75 -224.1 1123.24 -224.98 1122.72 C-229.88 1119.77 -234.7 1116.78 -239.21 1113.26 C-239.21 1112.6 -239.21 1111.94 -239.21 1111.26 C-239.75 1111.04 -240.3 1110.81 -240.85 1110.58 C-243.97 1108.83 -246.44 1106.51 -249.03 1104.07 C-249.56 1103.58 -250.09 1103.08 -250.64 1102.57 C-256.5 1097.1 -262.32 1091.64 -267.21 1085.26 C-267.21 1084.6 -267.21 1083.94 -267.21 1083.26 C-267.87 1083.26 -268.53 1083.26 -269.21 1083.26 C-270.81 1081.15 -272.28 1079.04 -273.71 1076.82 C-274.15 1076.15 -274.59 1075.48 -275.04 1074.79 C-289.04 1053.2 -289.04 1053.2 -292.43 1042.64 C-293.18 1040.37 -294.1 1038.34 -295.15 1036.2 C-297.2 1031.71 -298.52 1027.07 -299.84 1022.32 C-300.05 1021.58 -300.25 1020.84 -300.46 1020.08 C-306.28 998.59 -306.52 976.77 -306.46 954.64 C-306.45 951.12 -306.46 947.59 -306.46 944.07 C-306.46 937.93 -306.46 931.78 -306.45 925.63 C-306.44 916.49 -306.44 907.35 -306.44 898.21 C-306.44 882.83 -306.44 867.45 -306.43 852.07 C-306.41 836.86 -306.41 821.64 -306.4 806.43 C-306.4 805.48 -306.4 804.53 -306.4 803.55 C-306.4 798.74 -306.4 793.92 -306.4 789.11 C-306.4 755.05 -306.38 720.99 -306.37 686.94 C-306.35 653.86 -306.33 620.79 -306.32 587.71 C-306.32 586.69 -306.32 585.67 -306.32 584.62 C-306.32 574.37 -306.32 564.12 -306.32 553.87 C-306.31 533 -306.31 512.12 -306.3 491.24 C-306.3 490.28 -306.3 489.33 -306.3 488.34 C-306.28 424.31 -306.25 360.28 -306.21 296.26 C-307.08 296.27 -307.08 296.27 -307.96 296.28 C-310.59 296.32 -313.23 296.34 -315.86 296.36 C-316.77 296.37 -317.67 296.39 -318.61 296.4 C-325.26 296.44 -330.43 295.73 -336.21 292.26 C-336.99 291.82 -337.76 291.39 -338.56 290.94 C-344.02 287.61 -348.53 283.52 -352.21 278.26 C-352.21 277.6 -352.21 276.94 -352.21 276.26 C-352.87 276.26 -353.53 276.26 -354.21 276.26 C-359.62 264.23 -361.45 253.08 -356.71 240.38 C-355.9 238.33 -355.08 236.29 -354.21 234.26 C-353.55 234.26 -352.89 234.26 -352.21 234.26 C-352.03 233.58 -351.84 232.9 -351.65 232.2 C-347.74 224.21 -339.55 218.76 -331.4 215.64 C-324.76 213.51 -317.96 213.86 -311.06 213.92 C-309.54 213.92 -308.02 213.92 -306.5 213.92 C-302.4 213.92 -298.3 213.93 -294.21 213.95 C-289.91 213.97 -285.62 213.98 -281.33 213.98 C-273.21 213.99 -265.09 214.01 -256.98 214.04 C-247.73 214.08 -238.49 214.09 -229.24 214.11 C-210.23 214.14 -191.22 214.19 -172.21 214.26 C-172.22 213.26 -172.22 212.27 -172.23 211.24 C-172.27 201.84 -172.3 192.44 -172.32 183.04 C-172.33 178.21 -172.34 173.38 -172.37 168.54 C-172.39 163.88 -172.4 159.21 -172.4 154.54 C-172.41 152.76 -172.42 150.99 -172.43 149.21 C-172.44 146.71 -172.44 144.21 -172.44 141.72 C-172.45 140.99 -172.46 140.27 -172.46 139.52 C-172.45 134.94 -171.81 130.8 -170.69 126.36 C-170.2 124.19 -169.96 122.09 -169.78 119.88 C-168.98 111.9 -166.47 104.55 -163.21 97.26 C-162.63 95.55 -162.04 93.84 -161.46 92.13 C-157.01 79.88 -149.83 69.41 -142.34 58.86 C-141.27 57.34 -140.24 55.8 -139.21 54.26 C-138.55 54.26 -137.89 54.26 -137.21 54.26 C-136.97 53.7 -136.72 53.15 -136.46 52.57 C-134.99 49.83 -133.28 47.58 -131.21 45.26 C-130.55 45.26 -129.89 45.26 -129.21 45.26 C-128.88 44.27 -128.55 43.28 -128.21 42.26 C-122.75 36.49 -115.86 31.57 -109.21 27.26 C-108.55 27.26 -107.89 27.26 -107.21 27.26 C-107.21 26.6 -107.21 25.94 -107.21 25.26 C-105.8 24.44 -104.38 23.63 -102.96 22.82 C-102.18 22.37 -101.39 21.92 -100.57 21.45 C-98.43 20.37 -96.56 19.73 -94.21 19.26 C-94.21 18.6 -94.21 17.94 -94.21 17.26 C-93.6 17.02 -92.98 16.77 -92.34 16.52 C-87.28 14.52 -82.28 12.44 -77.32 10.19 C-76.63 9.88 -75.93 9.57 -75.21 9.26 C-74.48 8.93 -73.75 8.61 -72.99 8.27 C-69.26 6.91 -65.46 6.07 -61.59 5.2 C-55.85 3.91 -55.85 3.91 -50.21 2.26 C-33.6 -0.15 -16.74 -0.03 0 0 Z M-59.71 92.45 C-60.78 93.12 -61.84 93.79 -62.93 94.49 C-63.69 95.07 -64.44 95.66 -65.21 96.26 C-65.21 96.92 -65.21 97.58 -65.21 98.26 C-65.78 98.49 -66.35 98.73 -66.94 98.97 C-77.68 105.05 -84.45 119.02 -88.21 130.26 C-93.71 157.72 -90.21 186.25 -90.21 214.26 C41.13 214.26 172.47 214.26 307.79 214.26 C312.68 152.15 312.68 152.15 287.85 100.95 C285.71 98.68 285.71 98.68 282.79 98.26 C282.79 97.6 282.79 96.94 282.79 96.26 C280.41 94.36 280.41 94.36 277.29 92.45 C276.26 91.78 275.24 91.11 274.19 90.43 C259.13 82.49 244.31 82.52 227.65 82.61 C224.13 82.62 220.62 82.6 217.1 82.59 C210.24 82.56 203.37 82.57 196.51 82.58 C190.93 82.59 185.34 82.6 179.76 82.59 C178.96 82.59 178.16 82.59 177.34 82.59 C175.72 82.59 174.1 82.58 172.47 82.58 C157.3 82.57 142.14 82.58 126.97 82.61 C113.98 82.63 101 82.63 88.01 82.61 C72.9 82.58 57.78 82.57 42.66 82.58 C41.04 82.59 39.43 82.59 37.81 82.59 C37.02 82.59 36.22 82.59 35.41 82.59 C29.83 82.6 24.26 82.59 18.69 82.58 C11.9 82.56 5.1 82.57 -1.7 82.59 C-5.16 82.61 -8.62 82.61 -12.08 82.6 C-29.24 82.53 -44.88 82.76 -59.71 92.45 Z M-223.21 296.26 C-223.36 415.97 -223.36 415.97 -223.46 535.68 C-223.47 553.03 -223.48 570.37 -223.49 587.72 C-223.49 589.81 -223.49 591.91 -223.49 594.01 C-223.51 627.44 -223.55 660.86 -223.6 694.29 C-223.64 728.65 -223.67 763.01 -223.68 797.38 C-223.69 802.23 -223.69 807.09 -223.69 811.95 C-223.69 812.9 -223.69 813.86 -223.69 814.84 C-223.7 830.21 -223.72 845.58 -223.75 860.95 C-223.78 876.41 -223.79 891.87 -223.78 907.33 C-223.78 916.51 -223.79 925.69 -223.82 934.87 C-223.84 941.01 -223.84 947.15 -223.82 953.3 C-223.82 956.79 -223.82 960.28 -223.84 963.77 C-223.93 981.33 -223.4 997.71 -215.1 1013.53 C-213.98 1015.71 -213.1 1017.97 -212.21 1020.26 C-211.56 1021.6 -210.9 1022.94 -210.21 1024.26 C-209.55 1024.26 -208.89 1024.26 -208.21 1024.26 C-208.13 1024.8 -208.05 1025.33 -207.96 1025.88 C-206.59 1030.25 -203.77 1034.35 -200.21 1037.26 C-199.55 1037.26 -198.89 1037.26 -198.21 1037.26 C-197.95 1037.9 -197.68 1038.54 -197.4 1039.2 C-196.33 1041.59 -196.33 1041.59 -193.21 1042.26 C-193.21 1042.92 -193.21 1043.58 -193.21 1044.26 C-191.5 1045.85 -191.5 1045.85 -189.34 1047.38 C-188.62 1047.92 -187.9 1048.46 -187.16 1049.02 C-185.32 1050.44 -185.32 1050.44 -183.21 1050.26 C-183.21 1050.92 -183.21 1051.58 -183.21 1052.26 C-182.22 1052.26 -181.23 1052.26 -180.21 1052.26 C-180.21 1052.92 -180.21 1053.58 -180.21 1054.26 C-172.27 1060.09 -161.55 1062.61 -152.21 1065.26 C-150.41 1065.77 -150.41 1065.77 -148.56 1066.3 C-144.13 1067.4 -139.93 1067.54 -135.38 1067.52 C-134.52 1067.52 -133.67 1067.53 -132.78 1067.53 C-129.91 1067.54 -127.04 1067.54 -124.17 1067.53 C-122.09 1067.54 -120.01 1067.54 -117.93 1067.55 C-112.21 1067.56 -106.5 1067.56 -100.79 1067.56 C-94.62 1067.57 -88.46 1067.58 -82.29 1067.59 C-69.51 1067.61 -56.74 1067.62 -43.96 1067.63 C-43.26 1067.63 -42.57 1067.63 -41.85 1067.63 C-41.16 1067.63 -40.46 1067.63 -39.74 1067.63 C-32.03 1067.63 -24.31 1067.64 -16.59 1067.64 C6.73 1067.66 30.06 1067.68 53.38 1067.68 C54.13 1067.68 54.87 1067.68 55.64 1067.68 C58.66 1067.68 61.69 1067.68 64.71 1067.68 C66.98 1067.68 69.26 1067.68 71.53 1067.68 C72.28 1067.68 73.03 1067.68 73.81 1067.68 C97.41 1067.69 121.01 1067.71 144.6 1067.75 C171.13 1067.79 197.66 1067.81 224.19 1067.81 C227.02 1067.81 229.86 1067.81 232.69 1067.81 C233.39 1067.81 234.08 1067.81 234.8 1067.81 C246 1067.81 257.19 1067.83 268.39 1067.85 C279.65 1067.88 290.92 1067.88 302.19 1067.87 C308.28 1067.86 314.38 1067.86 320.48 1067.88 C326.07 1067.9 331.66 1067.9 337.25 1067.88 C339.26 1067.88 341.28 1067.88 343.29 1067.89 C358.66 1068 373.28 1066.42 387.07 1059.15 C389.25 1058.02 391.5 1057.15 393.79 1056.26 C395.13 1055.61 396.46 1054.94 397.79 1054.26 C397.79 1053.6 397.79 1052.94 397.79 1052.26 C398.59 1052.14 398.59 1052.14 399.41 1052.01 C403.78 1050.63 407.87 1047.82 410.79 1044.26 C410.79 1043.6 410.79 1042.94 410.79 1042.26 C411.42 1041.99 412.06 1041.72 412.72 1041.45 C415.12 1040.37 415.12 1040.37 415.79 1037.26 C416.45 1037.26 417.11 1037.26 417.79 1037.26 C419.37 1035.54 419.37 1035.54 420.91 1033.38 C421.45 1032.66 421.99 1031.95 422.54 1031.2 C423.96 1029.36 423.96 1029.36 423.79 1027.26 C424.45 1027.26 425.11 1027.26 425.79 1027.26 C425.79 1026.27 425.79 1025.28 425.79 1024.26 C426.45 1024.26 427.11 1024.26 427.79 1024.26 C433.61 1016.31 436.13 1005.59 438.79 996.26 C439.13 995.11 439.47 993.97 439.83 992.79 C441.16 987.37 441.06 982.02 441.03 976.47 C441.03 974.7 441.03 974.7 441.04 972.9 C441.04 969.63 441.04 966.37 441.03 963.1 C441.02 959.55 441.03 956 441.03 952.44 C441.03 946.22 441.03 939.99 441.02 933.76 C441.01 924.5 441.01 915.24 441.01 905.98 C441.02 890.41 441.01 874.83 441 859.26 C440.98 843.83 440.98 828.41 440.97 812.99 C440.97 812.03 440.97 811.07 440.97 810.08 C440.97 805.22 440.97 800.35 440.97 795.48 C440.97 760.98 440.95 726.49 440.94 692 C440.92 658.49 440.9 624.98 440.9 591.47 C440.89 589.37 440.89 587.26 440.89 585.15 C440.89 568.03 440.88 550.91 440.88 533.79 C440.86 454.61 440.82 375.44 440.79 296.26 C221.67 296.26 2.55 296.26 -223.21 296.26 Z " fill="#000000" transform="translate(531.21484375,64.7412109375)"/>
<path d="M0 0 C10.4 7.3 16.89 16.65 20 29 C20.25 32.34 20.25 32.34 20.25 35.88 C20.26 36.54 20.26 37.19 20.26 37.87 C20.27 40.07 20.27 42.27 20.26 44.47 C20.26 46.06 20.27 47.66 20.27 49.25 C20.28 53.63 20.28 58.01 20.28 62.38 C20.27 67.11 20.28 71.83 20.29 76.55 C20.3 85.81 20.3 95.06 20.3 104.31 C20.3 111.83 20.3 119.35 20.31 126.87 C20.31 127.94 20.31 129.01 20.31 130.11 C20.31 132.29 20.31 134.46 20.31 136.63 C20.32 157.03 20.32 177.42 20.31 197.81 C20.31 216.46 20.32 235.11 20.34 253.77 C20.36 272.92 20.37 292.07 20.36 311.23 C20.36 321.98 20.36 332.73 20.38 343.49 C20.39 352.64 20.39 361.79 20.38 370.95 C20.37 375.62 20.37 380.29 20.38 384.96 C20.4 389.24 20.39 393.51 20.38 397.79 C20.38 399.34 20.38 400.88 20.39 402.42 C20.45 416.67 18.25 427.03 8.5 437.75 C7.67 438.49 6.85 439.24 6 440 C5.07 440.85 4.14 441.69 3.19 442.56 C-4.51 448.77 -13.85 451.73 -23.75 450.69 C-25.17 450.46 -26.58 450.23 -28 450 C-29.09 449.96 -30.19 449.92 -31.31 449.88 C-42.07 447.32 -50.94 439.98 -56.81 430.81 C-63.3 419.95 -63.29 408.75 -63.26 396.37 C-63.26 394.81 -63.27 393.24 -63.27 391.68 C-63.28 387.4 -63.28 383.13 -63.28 378.86 C-63.27 374.24 -63.28 369.62 -63.29 365 C-63.3 355.96 -63.3 346.93 -63.3 337.89 C-63.3 330.54 -63.3 323.19 -63.31 315.85 C-63.31 314.8 -63.31 313.75 -63.31 312.67 C-63.31 310.55 -63.31 308.42 -63.31 306.29 C-63.32 286.36 -63.32 266.43 -63.31 246.5 C-63.31 228.27 -63.32 210.05 -63.34 191.83 C-63.36 173.1 -63.37 154.37 -63.36 135.65 C-63.36 125.14 -63.36 114.63 -63.38 104.12 C-63.39 95.18 -63.39 86.23 -63.38 77.29 C-63.37 72.73 -63.37 68.17 -63.38 63.61 C-63.4 59.43 -63.39 55.25 -63.38 51.07 C-63.38 49.56 -63.38 48.05 -63.39 46.55 C-63.47 30.17 -60.71 17.36 -49.36 5.27 C-46.15 2.19 -43 -0.07 -39 -2 C-38.37 -2.32 -37.74 -2.63 -37.1 -2.96 C-25.57 -7.78 -10.58 -6.21 0 0 Z " fill="#000000" transform="translate(528,524)"/>
<path d="M0 0 C0.95 0.72 1.9 1.44 2.88 2.19 C3.51 2.66 4.15 3.13 4.8 3.61 C14.39 11.21 17.95 21.42 19.88 33.19 C20.27 38.47 20.28 43.73 20.25 49.03 C20.25 50.59 20.26 52.15 20.26 53.71 C20.27 57.97 20.26 62.23 20.25 66.49 C20.24 71.1 20.25 75.71 20.26 80.31 C20.27 89.32 20.26 98.33 20.25 107.34 C20.24 117.84 20.24 128.34 20.24 138.85 C20.24 157.58 20.23 176.32 20.21 195.06 C20.19 213.23 20.19 231.4 20.19 249.57 C20.2 269.38 20.2 289.18 20.19 308.99 C20.18 311.1 20.18 313.21 20.18 315.33 C20.18 316.36 20.18 317.4 20.18 318.48 C20.18 325.79 20.18 333.1 20.18 340.42 C20.18 349.33 20.18 358.25 20.16 367.16 C20.15 371.71 20.15 376.26 20.15 380.8 C20.16 384.97 20.15 389.14 20.14 393.3 C20.14 394.8 20.14 396.31 20.14 397.81 C20.18 413.46 18.65 426.27 7.44 438.12 C3.93 441.36 0.05 443.89 -4.12 446.19 C-4.76 446.54 -5.39 446.89 -6.04 447.25 C-13.15 450.45 -20.6 450.43 -28.12 449.19 C-29.24 449.13 -30.35 449.06 -31.5 449 C-42.89 446.45 -51.87 438.76 -58.12 429.19 C-63.03 419.58 -63.84 410.55 -63.76 399.99 C-63.77 398.39 -63.77 396.79 -63.78 395.18 C-63.8 390.82 -63.79 386.45 -63.78 382.08 C-63.77 377.36 -63.78 372.63 -63.8 367.91 C-63.82 358.67 -63.82 349.43 -63.8 340.19 C-63.79 332.68 -63.79 325.17 -63.79 317.65 C-63.79 316.58 -63.8 315.51 -63.8 314.41 C-63.8 312.23 -63.8 310.05 -63.8 307.88 C-63.82 287.49 -63.8 267.11 -63.77 246.72 C-63.75 229.25 -63.75 211.77 -63.78 194.3 C-63.8 173.99 -63.81 153.67 -63.8 133.36 C-63.8 131.19 -63.8 129.02 -63.79 126.86 C-63.79 125.79 -63.79 124.72 -63.79 123.62 C-63.79 116.12 -63.79 108.63 -63.81 101.13 C-63.82 91.98 -63.82 82.83 -63.79 73.69 C-63.78 69.03 -63.77 64.37 -63.79 59.7 C-63.8 55.43 -63.79 51.15 -63.77 46.88 C-63.76 45.34 -63.77 43.8 -63.78 42.26 C-63.85 31.91 -62.2 23.66 -58.12 14.19 C-57.47 14.19 -56.8 14.19 -56.12 14.19 C-55.94 13.51 -55.75 12.83 -55.56 12.12 C-51.6 4.02 -43.32 -1.26 -35.19 -4.62 C-22.97 -8.32 -10.82 -6.27 0 0 Z " fill="#000000" transform="translate(795.125,524.8125)"/>
</svg>
